<?xml version="1.0" encoding="UTF-8" standalone="no" ?>
<!DOCTYPE svg>
<svg xmlns="http://www.w3.org/2000/svg" version="1.1" width="256" height="256" viewBox="0 0 256 256"
     xml:space="preserve">
<desc>Created with Fabric.js 5.3.0</desc>
    <defs>
</defs>
    <g transform="matrix(1 0 0 1 123.1075128252 67.44215)" id="zq_XBTqGcqKKBFYCu12R-"  >
<path style="stroke: rgb(0,0,0); stroke-width: 1; stroke-dasharray: none; stroke-linecap: butt; stroke-dashoffset: 0; stroke-linejoin: miter; stroke-miterlimit: 4; fill: rgb(28,48,92); fill-rule: nonzero; opacity: 1;"  transform=" translate(0.000005, 0)" d="M -72.10744 65.70248 L -10.12397 -56.61157 C -10.12397 -56.61157 -4.99751 -66.94215 0.27109000000000094 -66.94215 C 5.539690000000001 -66.94215 10.950410000000002 -56.61157 10.950410000000002 -56.61157 L 72.10743000000001 66.94215 L 0.271080000000012 2.066119999999998 z" stroke-linecap="round" />
</g>
    <g transform="matrix(1 0 0 1 83.6369619703 121.6316114568)" id="3zY6w1FMjqfUnGalt9CW5"  >
<path style="stroke: rgb(0,0,0); stroke-width: 1; stroke-dasharray: none; stroke-linecap: butt; stroke-dashoffset: 0; stroke-linejoin: miter; stroke-miterlimit: 4; fill: rgb(28,48,92); fill-rule: nonzero; opacity: 1;"  transform=" translate(0, 0.000005)" d="M -21.37239 18.81013 L 4.394570000000002 18.81013 L 19.37638 1.3503700000000016 L 21.372390000000003 -18.810139999999997 z" stroke-linecap="round" />
</g>
    <g transform="matrix(1 0 0 1 146.2865400903 113.8699334664)" id="sx5oDAGpeyZ0TiDtOZuXe"  >
<path style="stroke: rgb(0,0,0); stroke-width: 1; stroke-dasharray: none; stroke-linecap: butt; stroke-dashoffset: 0; stroke-linejoin: miter; stroke-miterlimit: 4; fill: rgb(28,48,92); fill-rule: nonzero; opacity: 1;"  transform=" translate(0, 0)" d="M -36.85042 27.00504 L 36.85042 27.00504 L -22.891219999999997 -27.00504 L -3.1495799999999967 7.005040000000001 L -12.470259999999996 23.311130000000002 L -23.149579999999997 9.261540000000002 z" stroke-linecap="round" />
</g>
    <g transform="matrix(1 0 0 1 135.985419802 193.2877348549)" id="AuFWIcy7e8zZhjsF0houm"  >
<path style="stroke: rgb(0,0,0); stroke-width: 1; stroke-dasharray: none; stroke-linecap: butt; stroke-dashoffset: 0; stroke-linejoin: miter; stroke-miterlimit: 4; fill: rgb(28,48,92); fill-rule: nonzero; opacity: 1;"  transform=" translate(0.000005, 0)" d="M -98.28205 -40 L 68.93878000000001 -39.12791 L 108.54814000000002 39.7093 L 77.33778000000001 40 L 47.65154000000001 -19.4178 L -108.54814999999999 -20 z" stroke-linecap="round" />
</g>
    <g transform="matrix(1 0 0 1 83.583995 208.5128528417)" id="UOL6t5UW_erl1S_5pfuI2"  >
<path style="stroke: rgb(0,0,0); stroke-width: 1; stroke-dasharray: none; stroke-linecap: butt; stroke-dashoffset: 0; stroke-linejoin: miter; stroke-miterlimit: 4; fill: rgb(28,48,92); fill-rule: nonzero; opacity: 1;"  transform=" translate(0.000005, 0)" d="M -59.55488 -24.85708 C -59.55488 -24.85708 -15.492709999999995 -24.85708 20.167010000000005 -24.85708 C 55.826730000000005 -24.85708 83.08399 -24.85708 83.08399 -24.85708 L 83.05742 -15.120659999999999 L 83.03169999999999 -5.69633 L -19.860860000000017 -6.52278 L -38.455900000000014 24.85708 L -83.08400000000002 24.85708 z" stroke-linecap="round" />
</g>
</svg>